<svg width="32" height="32" viewBox="0 0 32 32" fill="none" xmlns="http://www.w3.org/2000/svg">
<path fill-rule="evenodd" clip-rule="evenodd" d="M0 16C0 7.16344 7.16344 0 16 0C24.8366 0 32 7.16344 32 16C32 24.8366 24.8366 32 16 32C7.16344 32 0 24.8366 0 16ZM9.33327 11.5069V20.6667C9.33327 21.0349 9.63174 21.3333 9.99993 21.3333H21.9999C22.3681 21.3333 22.6666 21.0349 22.6666 20.6667V11.5072L16.4485 17.16L16.0001 17.5677L15.5516 17.16L9.33327 11.5069ZM21.609 10.6667L16.0001 15.7658L10.3912 10.6667H21.609ZM9.99993 9.33333C8.89536 9.33333 7.99993 10.2288 7.99993 11.3333V20.6667C7.99993 21.7712 8.89536 22.6667 9.99993 22.6667H21.9999C23.1045 22.6667 23.9999 21.7712 23.9999 20.6667V11.3333C23.9999 10.2288 23.1045 9.33333 21.9999 9.33333H9.99993Z" fill="#8F993E"/>
</svg>
