<svg width="33" height="32" viewBox="0 0 33 32" fill="none" xmlns="http://www.w3.org/2000/svg">
<path fill-rule="evenodd" clip-rule="evenodd" d="M16.6665 0C7.82995 0 0.666504 7.16344 0.666504 16C0.666504 24.8366 7.82995 32 16.6665 32C25.5031 32 32.6665 24.8366 32.6665 16C32.6665 7.16344 25.5031 0 16.6665 0ZM13.1487 7.51816C14.059 7.47673 14.3498 7.4666 16.6673 7.4666H16.6647C18.9829 7.4666 19.2727 7.47673 20.1829 7.51816C21.0914 7.55976 21.7118 7.70358 22.2558 7.91461C22.8176 8.13239 23.2923 8.42394 23.767 8.89862C24.2416 9.37293 24.5332 9.84903 24.7519 10.4103C24.9616 10.9529 25.1056 11.573 25.1483 12.4814C25.1892 13.3916 25.1999 13.6825 25.1999 16C25.1999 18.3176 25.1892 18.6077 25.1483 19.5179C25.1056 20.426 24.9616 21.0463 24.7519 21.5891C24.5332 22.1501 24.2416 22.6262 23.767 23.1005C23.2928 23.5752 22.8174 23.8675 22.2564 24.0854C21.7134 24.2965 21.0926 24.4403 20.1842 24.4819C19.2739 24.5233 18.984 24.5334 16.6663 24.5334C14.3489 24.5334 14.0582 24.5233 13.148 24.4819C12.2397 24.4403 11.6195 24.2965 11.0765 24.0854C10.5156 23.8675 10.0395 23.5752 9.5654 23.1005C9.0909 22.6262 8.79934 22.1501 8.58121 21.5889C8.37036 21.0463 8.22654 20.4262 8.18476 19.5177C8.14351 18.6075 8.1332 18.3176 8.1332 16C8.1332 13.6825 8.14387 13.3915 8.18458 12.4812C8.22547 11.5731 8.36947 10.9529 8.58103 10.4101C8.7997 9.84903 9.09126 9.37293 9.56593 8.89862C10.0402 8.42412 10.5163 8.13256 11.0776 7.91461C11.6202 7.70358 12.2403 7.55976 13.1487 7.51816Z" fill="#8F993E"/>
<path fill-rule="evenodd" clip-rule="evenodd" d="M15.902 9.00457C16.0506 9.00434 16.2105 9.00441 16.3831 9.00449L16.6675 9.00457C18.9459 9.00457 19.216 9.01275 20.1157 9.05364C20.9477 9.09169 21.3993 9.23071 21.7001 9.34751C22.0983 9.50218 22.3822 9.68707 22.6807 9.98574C22.9794 10.2844 23.1643 10.5689 23.3193 10.9671C23.4361 11.2675 23.5753 11.7191 23.6132 12.5511C23.6541 13.4507 23.663 13.7209 23.663 15.9982C23.663 18.2756 23.6541 18.5458 23.6132 19.4454C23.5751 20.2774 23.4361 20.729 23.3193 21.0294C23.1646 21.4276 22.9794 21.7112 22.6807 22.0097C22.3821 22.3084 22.0985 22.4932 21.7001 22.6479C21.3996 22.7653 20.9477 22.9039 20.1157 22.942C19.2162 22.9829 18.9459 22.9917 16.6675 22.9917C14.3889 22.9917 14.1189 22.9829 13.2193 22.942C12.3873 22.9036 11.9357 22.7645 11.6347 22.6477C11.2365 22.4931 10.9521 22.3082 10.6534 22.0095C10.3547 21.7108 10.1698 21.4271 10.0148 21.0287C9.89801 20.7283 9.75881 20.2767 9.72094 19.4447C9.68005 18.5451 9.67188 18.2749 9.67188 15.9961C9.67188 13.7173 9.68005 13.4485 9.72094 12.549C9.75899 11.717 9.89801 11.2654 10.0148 10.9646C10.1695 10.5664 10.3547 10.2819 10.6534 9.98325C10.9521 9.68458 11.2365 9.49969 11.6347 9.34467C11.9355 9.22733 12.3873 9.08866 13.2193 9.05044C14.0065 9.01489 14.3116 9.00422 15.902 9.00244V9.00457ZM21.2226 10.4213C20.6573 10.4213 20.1986 10.8794 20.1986 11.4449C20.1986 12.0102 20.6573 12.4689 21.2226 12.4689C21.788 12.4689 22.2467 12.0102 22.2467 11.4449C22.2467 10.8796 21.788 10.4209 21.2226 10.4209V10.4213ZM12.2852 16C12.2852 13.58 14.2472 11.6179 16.6672 11.6178C19.0874 11.6178 21.049 13.5799 21.049 16C21.049 18.4202 19.0875 20.3814 16.6674 20.3814C14.2473 20.3814 12.2852 18.4202 12.2852 16Z" fill="#8F993E"/>
<path d="M16.6672 13.1558C18.2381 13.1558 19.5117 14.4292 19.5117 16.0002C19.5117 17.5711 18.2381 18.8447 16.6672 18.8447C15.0962 18.8447 13.8228 17.5711 13.8228 16.0002C13.8228 14.4292 15.0962 13.1558 16.6672 13.1558V13.1558Z" fill="#8F993E"/>
</svg>
