<svg width="32" height="32" viewBox="0 0 32 32" fill="none" xmlns="http://www.w3.org/2000/svg">
<path fill-rule="evenodd" clip-rule="evenodd" d="M16 0C7.16344 0 0 7.16344 0 16C0 24.8366 7.16344 32 16 32C24.8366 32 32 24.8366 32 16C32 7.16344 24.8366 0 16 0ZM24.359 14.2725C24.4744 14.8331 24.5332 15.4106 24.5332 15.9881C24.5332 16.5652 24.4744 17.1415 24.359 17.7032C24.2465 18.2516 24.0798 18.7901 23.8615 19.3047C23.6482 19.8103 23.3836 20.2975 23.0744 20.7519C22.7698 21.2034 22.4189 21.6269 22.0335 22.0131C21.6472 22.3975 21.2222 22.7474 20.7709 23.0533C20.3151 23.3603 19.8272 23.6245 19.3213 23.8389C18.8059 24.0561 18.2662 24.2225 17.7183 24.3348C17.1558 24.4505 16.5774 24.5096 15.9995 24.5096C15.4211 24.5096 14.8427 24.4505 14.281 24.3348C13.7323 24.2225 13.1927 24.0561 12.6776 23.8389C12.1718 23.6245 11.6834 23.3603 11.2275 23.0533C10.7763 22.7474 10.3513 22.3975 9.96582 22.0131C9.57998 21.6269 9.22911 21.2034 8.92409 20.7519C8.61658 20.2975 8.35155 19.8103 8.13738 19.3047C7.91901 18.7901 7.75194 18.2516 7.63902 17.7032C7.52485 17.1415 7.4665 16.5652 7.4665 15.9881C7.4665 15.4106 7.52482 14.8331 7.63905 14.2725C7.75198 13.7241 7.91904 13.1849 8.13742 12.671C8.35158 12.1651 8.61661 11.6774 8.92413 11.2231C9.22914 10.7712 9.58001 10.3484 9.96585 9.96187C10.3513 9.57739 10.7763 9.22833 11.2276 8.92292C11.6834 8.61458 12.1718 8.3504 12.6777 8.13568C13.1927 7.91802 13.7323 7.75119 14.2811 7.6397C14.8428 7.52487 15.4211 7.4666 15.9995 7.4666C16.5774 7.4666 17.1558 7.52487 17.7183 7.6397C18.2662 7.75123 18.8058 7.91806 19.3213 8.13568C19.8272 8.35037 20.3151 8.61458 20.771 8.92292C21.2222 9.22833 21.6473 9.57739 22.0335 9.96187C22.419 10.3484 22.7698 10.7712 23.0744 11.2231C23.3836 11.6774 23.6482 12.1651 23.8615 12.671C24.0798 13.1849 24.2465 13.7241 24.359 14.2725Z" fill="#8F993E"/>
<path fill-rule="evenodd" clip-rule="evenodd" d="M20.8115 10.5276L20.8122 10.5266C19.5292 9.39692 17.8445 8.71167 15.9994 8.71167C15.4073 8.71167 14.8327 8.78324 14.2822 8.91555L14.2941 8.93141C14.4666 9.16219 15.7945 10.9382 17.0065 13.1604C19.7338 12.1395 20.7771 10.579 20.8115 10.5276ZM21.6268 11.3662C21.5984 11.4066 20.4262 13.079 17.5674 14.2449C17.7365 14.5919 17.9003 14.9451 18.0516 15.3001C18.1053 15.4274 18.1578 15.5523 18.2091 15.6771C20.6646 15.3685 23.0844 15.8718 23.2757 15.9116L23.2844 15.9134C23.2677 14.1883 22.6497 12.6051 21.6272 11.3656L21.6268 11.3662ZM18.6533 16.8253C19.6092 19.4483 19.9976 21.5845 20.0718 22.0231C21.7081 20.9205 22.8702 19.1696 23.1944 17.1415C23.0444 17.0932 21.0055 16.4487 18.6533 16.8253ZM17.2877 17.1625C18.3132 19.8238 18.7365 22.0523 18.8444 22.6881C17.9698 23.0596 17.0085 23.2648 15.9993 23.2648C14.3092 23.2648 12.7575 22.6852 11.5203 21.7244C11.5355 21.6915 12.9396 18.675 17.2394 17.1783C17.2494 17.1746 17.2597 17.1714 17.2699 17.1681L17.27 17.1681L17.2877 17.1625ZM16.1998 14.7199C16.4086 15.1285 16.6082 15.5429 16.7911 15.9565C16.6953 15.9839 16.5986 16.0122 16.5036 16.0439C12.5709 17.3137 10.5766 20.8467 10.5791 20.8505C9.4182 19.5618 8.71191 17.8575 8.71191 15.9881C8.71191 15.9341 8.71369 15.8814 8.71549 15.8281C8.7163 15.8042 8.71711 15.7802 8.71776 15.7559C8.84692 15.7609 12.4475 15.8416 16.1998 14.7199ZM15.596 13.5995C14.3347 11.3618 12.9872 9.53564 12.8901 9.4062C10.8579 10.3645 9.34111 12.2344 8.86816 14.4879L8.87517 14.488C9.12423 14.4903 12.1339 14.5181 15.596 13.5995Z" fill="#8F993E"/>
</svg>
