<svg width="32" height="32" viewBox="0 0 32 32" fill="none" xmlns="http://www.w3.org/2000/svg">
<path fill-rule="evenodd" clip-rule="evenodd" d="M16 0C7.16344 0 0 7.16344 0 16C0 24.8366 7.16344 32 16 32C24.8366 32 32 24.8366 32 16C32 7.16344 24.8366 0 16 0ZM7.68125 13.252H11.3072V24.1464H7.68125V13.252ZM11.5458 9.8818C11.5222 8.8136 10.7584 8 9.51796 8C8.27754 8 7.4666 8.8136 7.4666 9.8818C7.4666 10.9279 8.25357 11.7649 9.47089 11.7649H9.49406C10.7584 11.7649 11.5458 10.9279 11.5458 9.8818ZM20.2088 12.9961C22.5948 12.9961 24.3836 14.5535 24.3836 17.8998L24.3834 24.1464H20.7576V18.3178C20.7576 16.8538 20.2329 15.8548 18.9203 15.8548C17.9186 15.8548 17.3219 16.5283 17.0599 17.1788C16.964 17.4119 16.9404 17.7367 16.9404 18.0623V24.1467H13.3141C13.3141 24.1467 13.3619 14.2745 13.3141 13.2522H16.9404V14.7953C17.4217 14.0535 18.2836 12.9961 20.2088 12.9961Z" fill="#8F993E"/>
</svg>
